<svg width="112" height="43" viewBox="0 0 112 43" fill="none" xmlns="http://www.w3.org/2000/svg">
<rect x="104" y="19" width="8" height="8" fill="#9812B9"/>
<rect x="73" y="7" width="7" height="7" fill="#6BA06A"/>
<rect x="53" y="26" width="10" height="10" fill="#FCD757"/>
<rect y="17" width="5" height="5" fill="#E94F37"/>
<path d="M7.28 11V32H11.57V11H7.28ZM9.89 14.63H14.06C15.2 14.63 16.1 14.89 16.76 15.41C17.42 15.91 17.75 16.67 17.75 17.69C17.75 18.69 17.42 19.45 16.76 19.97C16.1 20.49 15.2 20.75 14.06 20.75H9.89V24.38H14.06C15.72 24.38 17.13 24.11 18.29 23.57C19.47 23.03 20.37 22.26 20.99 21.26C21.61 20.24 21.92 19.05 21.92 17.69C21.92 16.31 21.61 15.12 20.99 14.12C20.37 13.12 19.47 12.35 18.29 11.81C17.13 11.27 15.72 11 14.06 11H9.89V14.63ZM24.699 12.86C24.699 13.48 24.929 14 25.389 14.42C25.849 14.84 26.399 15.05 27.039 15.05C27.679 15.05 28.219 14.84 28.659 14.42C29.119 14 29.349 13.48 29.349 12.86C29.349 12.22 29.119 11.7 28.659 11.3C28.219 10.88 27.679 10.67 27.039 10.67C26.399 10.67 25.849 10.88 25.389 11.3C24.929 11.7 24.699 12.22 24.699 12.86ZM25.119 18.2V32H28.899V18.2H25.119ZM36.8335 21.5C36.8335 20.1 37.1435 18.89 37.7635 17.87C38.4035 16.85 39.2335 16.07 40.2535 15.53C41.2735 14.97 42.3835 14.69 43.5835 14.69C44.5835 14.69 45.4735 14.82 46.2535 15.08C47.0335 15.34 47.7335 15.69 48.3535 16.13C48.9935 16.57 49.5435 17.05 50.0035 17.57V12.74C49.1435 12.06 48.2035 11.53 47.1835 11.15C46.1835 10.77 44.9135 10.58 43.3735 10.58C41.7735 10.58 40.2835 10.84 38.9035 11.36C37.5435 11.88 36.3535 12.63 35.3335 13.61C34.3335 14.59 33.5535 15.75 32.9935 17.09C32.4535 18.41 32.1835 19.88 32.1835 21.5C32.1835 23.12 32.4535 24.6 32.9935 25.94C33.5535 27.26 34.3335 28.41 35.3335 29.39C36.3535 30.37 37.5435 31.12 38.9035 31.64C40.2835 32.16 41.7735 32.42 43.3735 32.42C44.9135 32.42 46.1835 32.23 47.1835 31.85C48.2035 31.47 49.1435 30.94 50.0035 30.26V25.43C49.5435 25.95 48.9935 26.43 48.3535 26.87C47.7335 27.31 47.0335 27.66 46.2535 27.92C45.4735 28.18 44.5835 28.31 43.5835 28.31C42.3835 28.31 41.2735 28.04 40.2535 27.5C39.2335 26.94 38.4035 26.15 37.7635 25.13C37.1435 24.09 36.8335 22.88 36.8335 21.5ZM56.1022 24.95L53.0422 27.11C53.5022 28.09 54.1422 29 54.9622 29.84C55.7822 30.68 56.7422 31.35 57.8422 31.85C58.9622 32.33 60.1622 32.57 61.4422 32.57C62.4022 32.57 63.3122 32.42 64.1722 32.12C65.0522 31.84 65.8422 31.43 66.5422 30.89C67.2422 30.33 67.7922 29.65 68.1922 28.85C68.5922 28.05 68.7922 27.14 68.7922 26.12C68.7922 25.22 68.6422 24.43 68.3422 23.75C68.0622 23.05 67.6622 22.45 67.1422 21.95C66.6422 21.43 66.0722 20.99 65.4322 20.63C64.8122 20.27 64.1622 19.97 63.4822 19.73C62.4222 19.37 61.5422 19.02 60.8422 18.68C60.1422 18.32 59.6222 17.95 59.2822 17.57C58.9422 17.17 58.7722 16.71 58.7722 16.19C58.7722 15.67 58.9822 15.22 59.4022 14.84C59.8222 14.44 60.4522 14.24 61.2922 14.24C61.9322 14.24 62.5022 14.37 63.0022 14.63C63.5022 14.87 63.9422 15.2 64.3222 15.62C64.7222 16.02 65.0622 16.47 65.3422 16.97L68.7022 15.11C68.3422 14.37 67.8322 13.66 67.1722 12.98C66.5322 12.28 65.7222 11.71 64.7422 11.27C63.7822 10.81 62.6322 10.58 61.2922 10.58C59.9922 10.58 58.8122 10.82 57.7522 11.3C56.7122 11.76 55.8822 12.43 55.2622 13.31C54.6622 14.17 54.3622 15.2 54.3622 16.4C54.3622 17.4 54.5522 18.26 54.9322 18.98C55.3122 19.68 55.7922 20.28 56.3722 20.78C56.9522 21.26 57.5622 21.66 58.2022 21.98C58.8622 22.28 59.4422 22.52 59.9422 22.7C60.8822 23.06 61.6722 23.4 62.3122 23.72C62.9722 24.02 63.4622 24.37 63.7822 24.77C64.1222 25.17 64.2922 25.7 64.2922 26.36C64.2922 27.12 64.0222 27.72 63.4822 28.16C62.9422 28.6 62.2422 28.82 61.3822 28.82C60.6422 28.82 59.9522 28.66 59.3122 28.34C58.6722 28.02 58.0822 27.57 57.5422 26.99C57.0222 26.41 56.5422 25.73 56.1022 24.95ZM83.9598 11L79.4298 19.46L74.9298 11H70.0398L77.2698 23.33V32H81.6198V23.3L88.8498 11H83.9598ZM91.157 11V32H103.817V28.25H95.447V11H91.157Z" fill="black"/>
<rect x="24" y="10" width="6" height="6" fill="#7CC6FE"/>
</svg>
